<?xml version="1.0" encoding="UTF-8" standalone="no"?>
<!-- Created with Inkscape (http://www.inkscape.org/) -->

<svg
   xmlns:dc="http://purl.org/dc/elements/1.1/"
   xmlns:cc="http://creativecommons.org/ns#"
   xmlns:rdf="http://www.w3.org/1999/02/22-rdf-syntax-ns#"
   xmlns:svg="http://www.w3.org/2000/svg"
   xmlns="http://www.w3.org/2000/svg"
   xmlns:sodipodi="http://sodipodi.sourceforge.net/DTD/sodipodi-0.dtd"
   xmlns:inkscape="http://www.inkscape.org/namespaces/inkscape"
   version="1.1"
   width="745"
   height="745"
   id="svg4607"
   sodipodi:docname="logo.svg"
   inkscape:version="0.92+devel unknown">
  <sodipodi:namedview
     pagecolor="#ffffff"
     bordercolor="#666666"
     borderopacity="1"
     objecttolerance="10"
     gridtolerance="10"
     guidetolerance="10"
     inkscape:pageopacity="0"
     inkscape:pageshadow="2"
     inkscape:window-width="1366"
     inkscape:window-height="702"
     id="namedview7"
     showgrid="false"
     fit-margin-top="0"
     fit-margin-left="0"
     fit-margin-right="0"
     fit-margin-bottom="0"
     inkscape:zoom="0.22425739"
     inkscape:cx="372.98883"
     inkscape:cy="333.61888"
     inkscape:window-x="0"
     inkscape:window-y="0"
     inkscape:window-maximized="1"
     inkscape:current-layer="layer1"
     inkscape:document-rotation="0" />
  <defs
     id="defs4609" />
  <metadata
     id="metadata4612">
    <rdf:RDF>
      <cc:Work
         rdf:about="">
        <dc:format>image/svg+xml</dc:format>
        <dc:type
           rdf:resource="http://purl.org/dc/dcmitype/StillImage" />
        <dc:title />
      </cc:Work>
    </rdf:RDF>
  </metadata>
  <g
     id="layer1"
     transform="translate(0.94158629,-114.79998)">
    <path
       d="m 386.23157,4281.1555 c 20.33495,156.9435 131.11262,-35.9762 -26.75938,-46.9855 -172.34558,-12.0187 114.86116,-31.8099 -41.22528,42.2473 -142.9783,67.8379 74.7314,113.5783 36.41678,-39.969 -41.82727,-167.6243 65.74704,99.4097 -52.91893,-26.1524 -108.7004,-115.0174 -84.92608,106.1714 49.26618,22.2833 146.49491,-91.5788 -74.22725,93.2485 8.51958,-58.4104 75.79776,-138.9226 -127.2186,-47.9607 -5.9686,53.7408 132.3661,111.0256 -111.622,-41.7789 58.18432,-9.9472 155.54599,29.1585 6.30066,-135.8127 -52.95498,10.9304 -64.68816,160.1964 5.24106,-119.0693 27.44031,52.2627 z"
       transform="matrix(2.8759249,0,0,2.8759249,-654.7322,-11645.419)"
       id="path4588"
       style="fill:#973c00;fill-opacity:1;stroke:#000000;stroke-width:11.78499985;stroke-linecap:butt;stroke-linejoin:miter;stroke-miterlimit:4;stroke-dasharray:none;stroke-dashoffset:0;stroke-opacity:0"
       inkscape:connector-curvature="0" />
  </g>
</svg>
